<svg xmlns="http://www.w3.org/2000/svg" width="508" height="850" viewBox="0 0 508 850">
    <path fill="#F8FAFD" fill-rule="evenodd" d="M69.54 77.99c52.106 136.083 66.231 128.428 202.355 128.428s183.76 56.88 209.64 89.551c25.88 32.672 33.151 72.318 18.228 151.076-14.924 78.758-145.248 141.012-227.868 174.453-82.62 33.44-14.615 180.783-165.575 221.438C-44.64 883.59-170.269 719.1-218.508 652.93c-31.72-43.509-57.36-137.741-31.559-292.512 13.438-80.609 62.51-251.002 85.282-282.429 59.446-82.036 5.58-77.635 46.324-66.718C-77.718 22.188 17.435-58.095 69.54 77.989z"/>
</svg>
