<svg xmlns="http://www.w3.org/2000/svg" xmlns:xlink="http://www.w3.org/1999/xlink" width="365" height="77"><defs><rect id="a" width="335" height="47" rx="6"/><filter id="b" width="114.9%" height="206.4%" x="-7.5%" y="-42.6%" filterUnits="objectBoundingBox"><feOffset dy="5" in="SourceAlpha" result="shadowOffsetOuter1"/><feGaussianBlur in="shadowOffsetOuter1" result="shadowBlurOuter1" stdDeviation="7.5"/><feColorMatrix in="shadowBlurOuter1" values="0 0 0 0 0 0 0 0 0 0 0 0 0 0 0 0 0 0 0.08 0"/></filter><linearGradient id="c" x1="70.161%" x2="21.006%" y1="4.177%" y2="89.312%"><stop offset="0%" stop-color="#FFF" stop-opacity=".176"/><stop offset="100%" stop-color="#FFF" stop-opacity="0"/></linearGradient><linearGradient id="e" x1="86.139%" x2="40.234%" y1="35.274%" y2="80.027%"><stop offset="0%" stop-color="#FFF" stop-opacity=".127"/><stop offset="100%" stop-color="#FFF" stop-opacity="0"/></linearGradient></defs><g fill="none" fill-rule="evenodd" transform="translate(15 10)"><mask id="d" fill="#fff"><use xlink:href="#a"/></mask><use fill="#000" filter="url(#b)" xlink:href="#a"/><use fill="#41A5F5" xlink:href="#a"/><ellipse cx="33.5" cy="-29.61" fill="url(#c)" mask="url(#d)" rx="56.5" ry="53.11"/><path fill="url(#e)" d="M274.603 98.906c30.92 0 68.118-43.416 68.118-72.521 0-29.105 5.44-90.721-41.295-80.161-12.03 2.718-36.939 56.707-54.286 73.679-25.208 24.664-73.125-6.62-100.768 6.482-15.96 7.564-50.045 49.881-15.59 67.163 30.115 15.105 129.401 5.358 143.821 5.358z" mask="url(#d)" transform="rotate(28 229.415 23.51)"/></g></svg>