<svg xmlns="http://www.w3.org/2000/svg" width="130" height="78"><g fill="none" fill-rule="evenodd"><path fill="#FFD0D1" d="M123.776 48.597c14.514-17.19-.704-29.927-18.84-41.52-18.135-11.592-54.139-4.414-69.182-.216C20.711 11.06.352 9.424.497 54.014c.146 44.591 42.018 14.165 71.757 7.279 29.739-6.886 37.008 4.495 51.522-12.696z"/><path fill="#FF3E41" fill-opacity=".5" d="M11.568 8.342C-5.702 18.427-5.28 63.097 27.765 65.514c33.045 2.417 57.792 4.964 70.571-11.675 12.779-16.64 25.723-26.45 15.698-41.01C104.01-1.732 73.68 8.798 61 8.341c-12.68-.456-32.162-10.085-49.432 0z"/></g></svg>