<svg xmlns="http://www.w3.org/2000/svg" width="136" height="82"><g fill="none" fill-rule="evenodd"><path fill="#758DFB" fill-opacity=".25" d="M135.13 47.29c-3.969-20.106-22.372-15.824-40.068-22.312C77.365 18.489 66.18 6.35 51.799 10.597 37.42 14.842 29.952 22.274 25.14 28.69 20.46 34.927-5.664 41.156 2.208 64.499c5.985 17.749 41.722 20.5 70.147 13.521 28.424-6.979 66.747-10.623 62.777-30.73z"/><path fill="#4766F9" fill-opacity=".75" d="M111.887 3.873c14.413 4.425 12.49 13.395 14.307 25.035 2.112 13.536-.943 32.832-20.643 38.244-36.64 10.064-76.516 10.702-94.782-8.703-18.266-19.404-3.607-34.552 7.627-42.363C29.631 8.274 80.714-5.7 111.887 3.873z"/></g></svg>