<svg xmlns="http://www.w3.org/2000/svg" width="123" height="82"><g fill="none" fill-rule="evenodd"><path fill="#96F5EE" fill-opacity=".5" d="M101.435 52.35c9.964-9.125 21.888-8.963 21.11-17.617-.78-8.655.565-18.885-17.172-25.376-17.738-6.49-38.494-10.474-52.906-6.231C38.055 7.369 30.572 14.798 25.75 21.212c-4.823 6.415-8.023 13.25-22.978 35.802-14.955 22.551 42.775 29.12 71.263 22.146 28.487-6.973 17.436-17.684 27.4-26.81z"/><path fill="#17E4D7" d="M19.583 6.322C2.29 16.42-.89 24.942 1.443 38.562 3.776 52.185 10.89 65.7 29.588 68.99c18.7 3.29 48.877 10.892 70.258-6.768 21.382-17.66 12.828-33.345 6.701-48.705S76.375 2.676 63.678 2.219C50.982 1.76 36.874-3.776 19.583 6.322z"/></g></svg>