<svg xmlns="http://www.w3.org/2000/svg" width="80" height="80"><g fill="none" fill-rule="evenodd"><circle cx="40" cy="40" r="40" fill="#E6EAFF"/><path fill="#5B76F2" fill-rule="nonzero" d="M14.823 73.663h38.473c2.489 0 4.526-2.073 4.526-4.608v-40.9c0-.346-.113-.576-.34-.807L40.057 10.643c-.227-.23-.453-.346-.793-.346h-24.44c-2.49 0-4.527 2.074-4.527 4.608v54.15c0 2.535 2.037 4.608 4.526 4.608zM40.396 14.1l13.465 12.904H40.396V14.099zm-27.836.806c0-1.267 1.019-2.304 2.263-2.304h23.31v15.554c0 .691.453 1.152 1.131 1.152H55.56v39.748c0 1.267-1.019 2.304-2.263 2.304H14.823c-1.244 0-2.263-1.037-2.263-2.304v-54.15z"/><path fill="#D0D6F8" d="M12.56 14.905c0-1.267 1.019-2.304 2.263-2.304h23.31v15.554c0 .691.453 1.152 1.131 1.152H55.56v39.748c0 1.267-1.019 2.304-2.263 2.304H14.823c-1.244 0-2.263-1.037-2.263-2.304v-54.15z"/><path fill="#5B76F2" fill-rule="nonzero" d="M18.57 44.356h28.603c.686 0 1.144-.475 1.144-1.188s-.458-1.188-1.144-1.188H18.57c-.687 0-1.144.475-1.144 1.188s.457 1.188 1.144 1.188zm0 9.505h28.603c.686 0 1.144-.475 1.144-1.188s-.458-1.188-1.144-1.188H18.57c-.687 0-1.144.475-1.144 1.188s.457 1.188 1.144 1.188zm-.006 8.713h15.941c.683 0 1.139-.475 1.139-1.188s-.456-1.188-1.139-1.188h-15.94c-.684 0-1.14.475-1.14 1.188s.456 1.188 1.14 1.188z"/><path fill="#5B76F2" fill-rule="nonzero" d="M25.912 68.119h38.473c2.49 0 4.526-2.074 4.526-4.609v-40.9c0-.345-.113-.576-.34-.806L51.146 5.098c-.227-.23-.453-.346-.792-.346H25.912c-2.49 0-4.526 2.074-4.526 4.609v54.15c0 2.534 2.037 4.608 4.526 4.608zM51.485 8.554L64.95 21.458H51.485V8.554zm-27.836.807c0-1.267 1.019-2.304 2.263-2.304h23.31V22.61c0 .692.453 1.152 1.132 1.152h16.294V63.51c0 1.268-1.019 2.305-2.263 2.305H25.912c-1.244 0-2.263-1.037-2.263-2.305V9.36z"/><path fill="#FFF" d="M23.762 9.427c0-1.264 1.013-2.298 2.252-2.298H49.2v15.515c0 .69.45 1.15 1.125 1.15h16.209v39.65c0 1.264-1.013 2.299-2.252 2.299h-38.27c-1.238 0-2.25-1.035-2.25-2.299V9.427z"/><path fill="#5B76F2" fill-rule="nonzero" d="M29.659 38.812h28.603c.686 0 1.144-.475 1.144-1.188s-.458-1.188-1.144-1.188H29.659c-.687 0-1.144.475-1.144 1.188s.457 1.188 1.144 1.188zm0 9.505h28.603c.686 0 1.144-.475 1.144-1.188s-.458-1.188-1.144-1.188H29.659c-.687 0-1.144.475-1.144 1.188s.457 1.188 1.144 1.188zm-.006 8.713h15.941c.683 0 1.139-.476 1.139-1.188 0-.713-.456-1.189-1.139-1.189h-15.94c-.684 0-1.14.476-1.14 1.189 0 .712.456 1.188 1.14 1.188z"/></g></svg>