<svg xmlns="http://www.w3.org/2000/svg" width="20" height="24"><g fill="none"><path fill="#FB5155" d="M1.905 24h16.19C19.143 24 20 23.215 20 22.255V7.677a2 2 0 0 0-.69-1.512L12.753.488A2 2 0 0 0 11.444 0h-9.54C.858 0 0 .785 0 1.745v20.51C0 23.215.857 24 1.905 24zM12 1.44l6.597 5.69H14a2 2 0 0 1-2-2V1.44z"/><path fill="#FFF" d="M3.677 12.075h11.918c.286 0 .476-.202.476-.505s-.19-.505-.476-.505H3.677c-.286 0-.477.202-.477.505s.19.505.477.505zm0 4.04h11.918c.286 0 .476-.202.476-.505s-.19-.505-.476-.505H3.677c-.286 0-.477.202-.477.505s.19.505.477.505zm-.003 3.703h6.642c.285 0 .475-.202.475-.505s-.19-.505-.475-.505H3.674c-.284 0-.474.202-.474.505s.19.505.474.505z"/></g></svg>