<svg xmlns="http://www.w3.org/2000/svg" width="19" height="19"><path fill="#FFF" d="M14.012 8.595a.947.947 0 0 0-.72.323l-2.367 2.46V1.074c0-.293-.1-.544-.298-.752A.979.979 0 0 0 9.896 0a.947.947 0 0 0-.72.322 1.03 1.03 0 0 0-.31.752v10.304L6.51 8.918a.979.979 0 0 0-.73-.323.947.947 0 0 0-.721.323 1.03 1.03 0 0 0-.309.752c0 .293.103.548.309.762l4.116 4.298c.2.208.44.312.72.312a.994.994 0 0 0 .732-.312l4.116-4.298c.2-.214.299-.469.299-.762 0-.294-.1-.545-.299-.752a.979.979 0 0 0-.73-.323zM19 15.437a1.22 1.22 0 0 0-.317-.843.953.953 0 0 0-.739-.344c-.29 0-.54.116-.749.344a1.25 1.25 0 0 0-.306.844v1.187H2.11v-1.188a1.22 1.22 0 0 0-.317-.843.953.953 0 0 0-.738-.344.985.985 0 0 0-.75.344 1.25 1.25 0 0 0-.306.844v2.374c0 .328.103.605.306.832a.971.971 0 0 0 .75.356h16.888a.94.94 0 0 0 .74-.356c.21-.227.315-.504.316-.831v-2.375z"/></svg>