<svg xmlns="http://www.w3.org/2000/svg" width="19" height="14"><path fill="#2A9AF3" d="M18.5 1.545v10.91c0 .581-.482 1.045-1.067 1.045H1.567A1.056 1.056 0 0 1 .5 12.455V1.545c0-.088.012-.152.037-.239l.015-.054a58.92 58.92 0 0 0-.007.046 8.83 8.83 0 0 1 .034-.132 1.033 1.033 0 0 1 .436-.504C1.185.559 1.366.5 1.567.5h15.866c.202 0 .386.06.557.166.052.032.052.032.094.063a.957.957 0 0 1 .319.397l-.068-.1c.014.02.037.056.095.15l.02.09a.81.81 0 0 1 .05.28zM4.695 2.591l3.599 2.721a2 2 0 0 0 2.412 0l3.599-2.721h-9.61zm-1.562 8.818h12.734a.5.5 0 0 0 .5-.5V3.673L10.7 7.923a2 2 0 0 1-2.4 0l-5.667-4.25v7.236a.5.5 0 0 0 .5.5z"/></svg>