<svg xmlns="http://www.w3.org/2000/svg" width="80" height="80"><g fill="none" fill-rule="evenodd"><circle cx="40" cy="40" r="40" fill="#EBF6FF"/><path fill="#41A5F5" fill-rule="nonzero" d="M37.063 61.034c15.278 0 27.709-12.43 27.709-27.71 0-15.278-12.43-27.707-27.71-27.707-15.278 0-27.708 12.43-27.708 27.708 0 15.279 12.43 27.71 27.709 27.71z"/><path fill="#A9D7FC" d="M62.17 33.325c0 .9-.05 1.79-.143 2.667H51.354a3.562 3.562 0 0 1-3.558-3.559 3.563 3.563 0 0 1 3.558-3.56h10.414c.26 1.446.402 2.932.402 4.452z"/><path fill="#FFF" d="M37.063 8.218c11.396 0 21.037 7.634 24.091 18.053h-9.8a6.167 6.167 0 0 0-6.159 6.161 6.167 6.167 0 0 0 6.16 6.16H61.61c-2.428 11.325-12.509 19.841-24.547 19.841a24.986 24.986 0 0 1-16.19-5.939h5.954a6.167 6.167 0 0 0 6.16-6.159 6.168 6.168 0 0 0-6.16-6.161h-3.482a3.562 3.562 0 0 1-3.559-3.558 3.562 3.562 0 0 1 3.559-3.56h7.012v-.01h1.166a6.167 6.167 0 0 0 6.16-6.16 6.167 6.167 0 0 0-6.16-6.16H15.358c4.355-7.471 12.45-12.508 21.705-12.508z"/><path fill="#A9D7FC" d="M14.037 23.329h17.486a3.562 3.562 0 0 1 3.56 3.558 3.563 3.563 0 0 1-3.56 3.56h-7.35c-.002.003-.005.006-.006.01h-.822a6.167 6.167 0 0 0-6.16 6.16 6.167 6.167 0 0 0 6.16 6.159h3.482a3.563 3.563 0 0 1 3.56 3.56 3.563 3.563 0 0 1-3.56 3.558h-8.606c-3.896-4.425-6.267-10.224-6.267-16.569 0-3.553.747-6.931 2.083-9.996z"/><path fill="#41A5F5" fill-rule="nonzero" d="M70.497 33.325c0-8.373-3.101-16.03-8.206-21.903l-1.936 1.734c4.691 5.411 7.541 12.462 7.541 20.17 0 17-13.831 30.833-30.833 30.833-8.93 0-16.982-3.82-22.618-9.907l-1.937 1.735c5.837 6.32 14.078 10.385 23.254 10.739v5.086H30.56v2.601h13.005v-2.6h-5.202v-5.086c17.835-.687 32.134-15.401 32.134-33.402z"/></g></svg>