<svg width="102" height="37" viewBox="0 0 102 37" xmlns="http://www.w3.org/2000/svg" xmlns:xlink="http://www.w3.org/1999/xlink"><title>302CC380-94E1-49CD-A86D-52F8E9BD96E6</title><defs><path id="a" d="M9.91.11H.077v9.703H9.91V.11z"/><path id="c" d="M0 35.84h101.96V.11H0z"/></defs><g fill="none" fill-rule="evenodd"><path fill="#FEC452" d="M63.157 35.943h9.086V.303h-9.086"/><path fill="#F05A48" d="M92.488 35.943h9.108v-24.68h-9.108"/><g transform="translate(0 .193)"><g transform="translate(92.05)"><mask id="b" fill="#fff"><use xlink:href="#a"/></mask><path d="M9.91 5.004c0 1.313-.483 2.446-1.45 3.4-.994.94-2.15 1.41-3.467 1.41-1.36 0-2.52-.478-3.488-1.43C.553 7.4.077 6.253.077 4.94c0-1.34.476-2.48 1.428-3.42C2.5.58 3.655.11 4.972.11 6.36.11 7.53.59 8.482 1.543c.952.94 1.428 2.093 1.428 3.462" fill="#F05A48" mask="url(#b)"/></g><mask id="d" fill="#fff"><use xlink:href="#c"/></mask><path fill="#3E88BE" mask="url(#d)" d="M77.632 35.744h9.105V4.614h-9.105"/><path fill="#3E88BE" mask="url(#d)" d="M75.59 18.37h13.105v-7.3H75.59"/><path d="M21.752 24.317V35.84h-9.086V24.276c0-2.33-.39-3.535-1.85-3.535-1.502 0-1.73 1.29-1.73 3.778V35.84H0V11.16h8.984l-.034 2.09c1.286-1.67 2.872-2.18 6.284-2.18 6.33 0 6.518 7.14 6.518 13.247" fill="#F05A48" mask="url(#d)"/><path d="M34.433 24.317V35.84h-9.086V24.276c0-2.33-.39-3.535-1.85-3.535-1.502 0-1.73 1.29-1.73 3.778V35.84H12.68l7.933-21.118s.732-1.126 1.018-1.47c1.37-1.654 2.622-2.182 6.306-2.182 5.923 0 6.497 7.14 6.497 13.247" fill="#F05A48" mask="url(#d)"/><path d="M37.382 22.692c-.07-2.887-.102-11.587-.102-11.587h9.172v11.592c0 2.334.333 3.543 1.807 3.543 1.44 0 1.794-1.235 1.794-3.602l.01-11.533h9.173V35.84h-9.035v-2.093c-1.235 1.36-2.194 2.094-5.863 2.094-5.44 0-6.79-6.243-6.958-13.148" fill="#55BB73" mask="url(#d)"/></g></g></svg>