<?xml version="1.0" encoding="utf-8"?>
<!-- Generator: Adobe Illustrator 19.0.0, SVG Export Plug-In . SVG Version: 6.00 Build 0)  -->
<svg version="1.1" id="Слой_1" xmlns="http://www.w3.org/2000/svg" xmlns:xlink="http://www.w3.org/1999/xlink" x="0px" y="0px"
	 viewBox="968 -232 2896 1024" style="enable-background:new 968 -232 2896 1024;" xml:space="preserve">
<style type="text/css">
	.st0{fill:#FFFFFF;}
</style>
<g id="icomoon-ignore">
</g>
<g>
	<rect x="2749.6" y="-223.5" class="st0" width="256.3" height="994.6"/>
	<rect x="3577" y="82.3" class="st0" width="256.9" height="688.8"/>
	<path class="st0" d="M3803.9-183.6c-26.9-26.6-59.9-39.9-99-39.9c-37.1,0-69.7,13.1-97.8,39.4c-26.9,26.2-40.3,58-40.3,95.5
		c0,36.6,13.4,68.7,40.3,96c27.3,26.6,60.1,39.9,98.4,39.9c37.1,0,69.7-13.1,97.8-39.3c27.3-26.6,40.9-58.2,40.9-94.9l0,0
		C3844.2-125.2,3830.7-157.4,3803.9-183.6z"/>
	<polygon class="st0" points="3414.8,-97.9 3157.9,-97.9 3157.9,82.3 3100.4,82.3 3100.4,286 3157.9,286 3157.9,770.9 3414.8,770.9 
		3414.8,286 3470,286 3470,82.3 3414.8,82.3 	"/>
	<path class="st0" d="M1756,82.3c-103.9,0-139.2,14.7-177.9,60.9c-7.9,9.4-27.7,39.6-28.7,41c-25.4-60.8-70.7-101.9-151.8-101.9
		c-96.2,0-141,14.2-177.3,60.9l1-58.3H968v688.8h256.3v-316c0-69.5,6.4-105.4,48.8-105.4c41.2,0,52.2,33.7,52.2,98.7v322.8h256.3v0
		h0.4v-316c0-69.5,6.4-105.4,48.8-105.4c41.2,0,52.2,33.7,52.2,98.7v322.8h256.3V452l0,0C1939.3,281.6,1923.1,82.3,1756,82.3z"/>
	<path class="st0" d="M2380,405.2c0,66.1-10,100.5-50.7,100.5c-41.6,0-51-33.7-51-98.9V83.3h-258.7c0,0,0.9,242.8,2.9,323.4h0
		c4.7,192.7,42.8,367,196.2,367c103.5,0,130.5-20.5,165.4-58.5l0,58.5H2639V83.3h-258.7L2380,405.2z"/>
</g>
</svg>
